# xmcd
#
# Track frame offsets:
#	150
#	11078
#	24263
#	35213
#	46906
#	57781
#	67539
#	79697
#	91547
#	101987
#
# Disc length: 1505 seconds
#
# Revision: 1
# Processed by: cddbd v1.5.2PL0 Copyright (c) Steve Scherf et al.
# Submitted via: audiograbber 1.83.01
#
DISCID=6d05df0a
DTITLE=Floyd Cramer - Plays More Country Hits
DYEAR=1969
DGENRE=Instrumental
TTITLE0=Wildwood Flower
TTITLE1=I Really Don't Want To Know
TTITLE2=Danny Boy
TTITLE3=Worried Mind
TTITLE4=Daddy Sang Bass
TTITLE5=Everlasting Love
TTITLE6=Born To Lose
TTITLE7=With Pen In Hand
TTITLE8=Heartaches By The Number
TTITLE9=Send Me The Pillow You Dream On
EXTD=
EXTT0=
EXTT1=
EXTT2=
EXTT3=
EXTT4=
EXTT5=
EXTT6=
EXTT7=
EXTT8=
EXTT9=
PLAYORDER=
